<svg width="198" height="126" viewBox="0 0 198 126" fill="none" xmlns="http://www.w3.org/2000/svg">
<path fill-rule="evenodd" clip-rule="evenodd" d="M66.1972 32.5928C64.1307 39.6471 59.3518 45.1622 53.2812 47.5992C59.3518 50.0361 64.1307 55.5513 66.1972 62.6056C68.2638 55.5513 73.0427 50.0361 79.1132 47.5992C72.9135 45.1622 68.2638 39.6471 66.1972 32.5928Z" fill="#FFEE9C"/>
<path fill-rule="evenodd" clip-rule="evenodd" d="M90.9962 42.4694C92.2878 38.1086 95.2584 34.6456 99.0041 33.2347C95.2584 31.6956 92.2878 28.3608 90.9962 24C89.7046 28.3608 86.7339 31.8238 82.9883 33.2347C86.8631 34.6456 89.8337 38.1086 90.9962 42.4694Z" fill="#FFEE9C"/>
<path fill-rule="evenodd" clip-rule="evenodd" d="M165.992 109.665C167.284 105.304 170.255 101.841 174 100.43C170.255 98.8909 167.284 95.5561 165.992 91.1953C164.701 95.5561 161.73 99.0192 157.984 100.43C161.859 101.841 164.701 105.304 165.992 109.665Z" fill="#FFEE9C"/>
<path d="M151.093 125.999H25.0333C24.3875 125.999 24 125.486 24 124.973C24 124.46 24.5166 123.947 25.0333 123.947H150.964C151.61 123.947 151.997 124.46 151.997 124.973C151.997 125.486 151.61 125.999 151.093 125.999Z" fill="#585A68"/>
<g clip-path="url(#clip0)">
<path d="M41.0749 109.812H113.951C116.016 109.812 117.717 111.514 117.717 113.58V120.022C117.717 122.088 116.016 123.789 113.951 123.789H41.0749C39.01 123.911 37.3096 122.209 37.3096 120.143V113.702C37.3096 111.514 39.01 109.812 41.0749 109.812Z" fill="#FCCF07"/>
<path d="M118.055 119.756V119.488H37.3096V119.756C37.3096 122.034 39.0172 123.909 41.0907 123.909H114.274C116.347 123.909 118.055 122.034 118.055 119.756Z" fill="#FAB306"/>
<path d="M58.6864 109.812H47.269V119.9H58.6864V109.812Z" fill="#FCEE8F"/>
<path d="M41.0749 95.7129H113.951C116.016 95.7129 117.717 97.4144 117.717 99.4806V106.044C117.717 108.11 116.016 109.811 113.951 109.811H41.0749C39.01 109.811 37.3096 108.11 37.3096 106.044V99.4806C37.3096 97.4144 39.01 95.7129 41.0749 95.7129Z" fill="#FCCF07"/>
<path d="M117.717 106.043V105.8H37.3096V106.043C37.3096 108.109 39.01 109.811 41.0749 109.811H113.951C116.016 109.811 117.717 108.109 117.717 106.043Z" fill="#FAB306"/>
<path d="M58.6864 95.7129H47.269V105.801H58.6864V95.7129Z" fill="#FCEE8F"/>
<path d="M41.0749 81.6152H113.951C116.016 81.6152 117.717 83.3168 117.717 85.3829V91.946C117.717 94.0121 116.016 95.7136 113.951 95.7136H41.0749C39.01 95.7136 37.3096 94.0121 37.3096 91.946V85.3829C37.3096 83.3168 39.01 81.6152 41.0749 81.6152Z" fill="#FCCF07"/>
<path d="M40.2246 95.5928H114.923C116.502 95.2282 117.838 93.6482 117.838 91.9466V91.582H37.3096V91.9466C37.3096 93.6482 38.5242 95.2282 40.2246 95.5928Z" fill="#FAB306"/>
<path d="M58.6864 81.6152H47.269V91.7029H58.6864V81.6152Z" fill="#FCEE8F"/>
<path d="M113.344 123.909C135.547 123.909 153.547 105.898 153.547 83.6802C153.547 61.4623 135.547 43.4512 113.344 43.4512C91.1399 43.4512 73.1401 61.4623 73.1401 83.6802C73.1401 105.898 91.1399 123.909 113.344 123.909Z" fill="#FAB306"/>
<path d="M113.344 117.347C131.925 117.347 146.989 102.274 146.989 83.6807C146.989 65.0874 131.925 50.0146 113.344 50.0146C94.7624 50.0146 79.6992 65.0874 79.6992 83.6807C79.6992 102.274 94.7624 117.347 113.344 117.347Z" fill="#FCEE8F"/>
<path d="M113.344 107.989C126.76 107.989 137.636 97.1063 137.636 83.6816C137.636 70.2569 126.76 59.374 113.344 59.374C99.9277 59.374 89.0518 70.2569 89.0518 83.6816C89.0518 97.1063 99.9277 107.989 113.344 107.989Z" fill="#FCCF07"/>
</g>
<defs>
<clipPath id="clip0">
<rect width="116.238" height="80.4581" fill="white" transform="translate(37.3096 43.4521)"/>
</clipPath>
</defs>
</svg>
