<svg width="14" height="18" viewBox="0 0 14 18" fill="none" xmlns="http://www.w3.org/2000/svg">
<path d="M9.44999 3.32496C9.76503 2.96186 10.0052 2.5401 10.1568 2.08391C10.3084 1.62771 10.3684 1.14607 10.3333 0.666626C9.36613 0.744698 8.46832 1.19959 7.83332 1.93329C7.52924 2.28494 7.2988 2.69403 7.15566 3.13633C7.01252 3.57863 6.95958 4.04516 6.99999 4.50829C7.47177 4.51222 7.93814 4.40754 8.36298 4.20234C8.78783 3.99714 9.15976 3.69694 9.44999 3.32496ZM11.55 9.52496C11.5556 8.88641 11.7238 8.25981 12.0387 7.7043C12.3536 7.14878 12.8049 6.68267 13.35 6.34996C13.006 5.85433 12.5513 5.44565 12.0219 5.15635C11.4924 4.86706 10.9029 4.70509 10.3 4.68329C8.99999 4.54996 7.79999 5.44163 7.10832 5.44163C6.41665 5.44163 5.44165 4.69996 4.35832 4.71663C3.65009 4.73996 2.96 4.94644 2.35536 5.31595C1.75072 5.68545 1.25216 6.20536 0.908321 6.82496C-0.558346 9.37496 0.533321 13.1666 1.99999 15.225C2.66665 16.2333 3.49999 17.375 4.59999 17.3333C5.69999 17.2916 6.05832 16.65 7.33332 16.65C8.60832 16.65 8.99999 17.3333 10.0833 17.3083C11.1667 17.2833 11.9333 16.275 12.6333 15.2666C13.1292 14.5346 13.5165 13.7346 13.7833 12.8916C13.1229 12.61 12.5594 12.141 12.1625 11.5427C11.7656 10.9444 11.5527 10.2429 11.55 9.52496Z" fill="white"/>
</svg>
