<svg width="198" height="126" viewBox="0 0 198 126" fill="none" xmlns="http://www.w3.org/2000/svg">
<path d="M7.94537 125.664H190.055C190.535 125.664 191.016 125.283 191.016 124.775C191.016 124.267 190.656 123.886 190.055 123.886H7.94537C7.46487 123.886 6.98438 124.267 6.98438 124.775C6.98438 125.283 7.46487 125.664 7.94537 125.664Z" fill="#616161"/>
<path d="M34.6458 92.6533H40.0736V124.126H34.6458C28.5719 124.126 23.6611 117.132 23.6611 108.325C23.6611 99.5177 28.5719 92.6533 34.6458 92.6533Z" fill="#2F313F"/>
<path d="M40.0736 124.127C46.1403 124.127 51.0583 117.053 51.0583 108.326C51.0583 99.5997 46.1403 92.5254 40.0736 92.5254C34.0069 92.5254 29.0889 99.5997 29.0889 108.326C29.0889 117.053 34.0069 124.127 40.0736 124.127Z" fill="#2F313F"/>
<path d="M160.646 95.2461H166.074V124.128H160.646C154.572 124.128 149.661 117.134 149.661 108.327C149.661 99.5201 154.572 95.2461 160.646 95.2461Z" fill="#2F313F"/>
<path d="M12.805 100.171V97.4512C12.805 95.7675 13.1927 94.0838 13.8389 92.6591C15.2604 89.5507 18.2327 87.2194 21.722 86.5718L52.4792 80.2255L71.6055 67.7919C72.2516 67.2739 72.8978 66.8853 73.4147 66.4968C74.3193 65.8492 75.224 65.3311 76.1286 64.8131C80.5225 62.2227 85.304 60.9276 90.0856 60.9276H135.963C140.744 60.9276 135.963 60.6685 138.548 63.6474C138.806 64.036 139.194 64.4245 139.581 64.6835C140.098 65.2016 140.744 65.7197 141.52 66.3673L146.301 80.096L147.206 82.8159C147.206 82.8159 146.172 111.05 142.424 112.216L138.16 115.843H56.7438H30.1221L17.3281 113.9C14.6143 113.511 12.6758 111.05 12.6758 108.331V102.114L12.805 100.171Z" fill="#F4F4F6"/>
<path d="M81.1683 95.2461H86.596V124.128H81.1683C75.0944 124.128 70.1836 117.134 70.1836 108.327C70.1836 99.5201 75.0944 95.2461 81.1683 95.2461Z" fill="#2F313F"/>
<path d="M56.873 97.1888V107.55C56.873 112.083 60.4915 115.839 65.1439 115.839H173.957L184.554 110.529C188.948 108.327 191.274 103.535 190.369 98.743L188.043 85.6619C187.656 83.3306 185.976 81.5173 183.649 80.8697C181.582 80.4812 179.514 79.4451 177.576 78.0204L162.843 67.141C157.415 63.126 151.341 61.0537 145.138 61.0537H128.597C124.074 61.0537 116.837 62.4784 113.089 64.9392C111.15 66.2344 109.341 67.7886 107.92 69.6018L97.0641 80.2222L65.6608 86.439C60.4915 87.4751 56.873 92.0082 56.873 97.1888Z" fill="#D3D4DC"/>
<path d="M172.536 115.839H149.92C142.296 106.643 137.772 94.8572 137.772 82.035C137.772 74.5231 139.323 67.3997 142.166 60.9238H145.139C151.342 60.9238 157.416 62.9961 162.843 67.0111L168.917 71.5442C167.367 74.6526 166.462 78.2791 166.462 82.035C166.462 88.2518 168.788 93.821 172.536 98.0951V115.839Z" fill="#34D186"/>
<path d="M166.203 124.125C172.27 124.125 177.188 117.051 177.188 108.324C177.188 99.5978 172.27 92.5234 166.203 92.5234C160.137 92.5234 155.219 99.5978 155.219 108.324C155.219 117.051 160.137 124.125 166.203 124.125Z" fill="#2F313F"/>
<path d="M166.204 118.947C169.772 118.947 172.665 114.192 172.665 108.326C172.665 102.461 169.772 97.7061 166.204 97.7061C162.635 97.7061 159.742 102.461 159.742 108.326C159.742 114.192 162.635 118.947 166.204 118.947Z" fill="#A9ABB9"/>
<path d="M86.7259 124.125C92.7926 124.125 97.7106 117.051 97.7106 108.324C97.7106 99.5978 92.7926 92.5234 86.7259 92.5234C80.6592 92.5234 75.7412 99.5978 75.7412 108.324C75.7412 117.051 80.6592 124.125 86.7259 124.125Z" fill="#2F313F"/>
<path d="M86.7253 118.947C90.2939 118.947 93.1868 114.192 93.1868 108.326C93.1868 102.461 90.2939 97.7061 86.7253 97.7061C83.1566 97.7061 80.2637 102.461 80.2637 108.326C80.2637 114.192 83.1566 118.947 86.7253 118.947Z" fill="#A9ABB9"/>
<path d="M13.8388 92.6562H63.0761C65.273 92.6562 66.5653 95.2466 65.273 97.0598L63.8514 99.1321C63.3345 99.7797 62.5591 100.298 61.6545 100.298H50.799C49.8944 100.298 49.119 99.9092 48.6021 99.2616L46.4052 96.2827C45.8882 95.6351 45.1128 95.2466 44.2082 95.2466H25.0819C24.1773 95.2466 23.4019 95.6351 22.885 96.2827L20.688 99.2616C20.1711 99.9092 19.3957 100.298 18.4911 100.298H12.7627L12.7627 97.6557C12.7627 95.4331 13.1926 94.0809 13.8388 92.6562Z" fill="#A9ABB9"/>
<path d="M52.4795 80.0945H97.0645L107.92 69.4741C109.471 67.6609 111.151 65.9772 113.089 64.8115H84.2705C78.972 64.8115 73.8027 66.3657 69.4089 69.2151L52.4795 80.0945Z" fill="#585A68"/>
<path d="M97.0645 80.0945H157.286C161.163 80.0945 162.843 75.1729 159.871 72.8416L156.123 69.8627C151.988 66.6248 146.948 64.8115 141.649 64.8115H113.089C111.151 66.1067 109.341 67.6609 107.92 69.4741L97.0645 80.0945Z" fill="#2F313F"/>
<path d="M133.25 121.669L134.284 76.4678H126.788" fill="#2F313F"/>
<path d="M124.204 64.8125L122.782 84.1105L126.53 84.6285L130.148 65.8486L124.204 64.8125Z" fill="#FFAE80"/>
<path d="M122.782 84.1096C122.782 84.1096 122.136 86.959 122.394 88.2541C122.782 89.5493 123.686 90.715 124.591 90.4559C124.979 90.3264 124.72 89.6788 124.591 88.7722C124.591 87.9951 124.591 87.0885 124.979 87.0885C125.366 87.0885 124.849 88.3837 125.625 88.5132C126.142 88.6427 126.4 87.3475 126.529 86.6999C126.659 85.5343 126.4 84.4982 126.4 84.4982L126.788 82.2964L122.782 81.7783V84.1096Z" fill="#FFAE80"/>
<path d="M141.52 76.4658H127.692V85.0139H141.52V76.4658Z" fill="#2F313F"/>
<path d="M145.914 121.539L142.037 76.3379H134.671L141.391 124C141.391 124 141.649 124 148.24 124C148.24 122.316 145.914 121.539 145.914 121.539Z" fill="#2F313F"/>
<path d="M134.671 76.4658H126.917L130.148 121.667C130.148 121.667 127.822 122.315 127.822 124.128C134.412 124.128 135.059 124.128 135.059 124.128V121.667L134.671 76.4658Z" fill="#2F313F"/>
<path d="M141.909 72.4529C141.521 69.9921 140.616 66.7542 140.616 66.7542L146.561 65.459C146.561 65.459 147.595 70.2511 147.466 72.1939C147.207 76.0794 142.684 76.4679 141.909 72.4529Z" fill="#FFAE80"/>
<path d="M141.133 67.2714L141.521 68.5666L143.201 69.3437V78.9279H126.013V67.0124C126.013 67.0124 126.66 66.8829 123.429 65.8467C125.109 52.377 144.493 52.5065 146.949 65.8467C146.174 66.1058 141.133 67.2714 141.133 67.2714Z" fill="#5B68F5"/>
<path d="M133.638 69.9945H131.311C131.053 69.9945 130.795 69.7355 130.665 69.4764L129.373 63.6482C129.244 63.2596 129.631 62.8711 130.019 62.8711H132.345C132.604 62.8711 132.862 63.1301 132.992 63.3892L134.284 69.2174C134.413 69.6059 134.155 69.9945 133.638 69.9945Z" fill="#2F313F"/>
<path d="M135.964 67.2764L134.154 70.7733C134.154 70.7733 141.391 74.5293 141.779 74.6588C148.241 77.1196 149.274 70.3848 142.425 68.701C138.677 67.9239 135.964 67.2764 135.964 67.2764Z" fill="#FFAE80"/>
<path d="M136.221 67.5305C135.575 66.4944 133.508 65.7173 131.957 66.4944C130.406 67.2715 131.44 69.7323 132.474 70.6389C133.508 71.5455 137.643 72.0636 137.643 72.0636C137.643 72.0636 136.868 68.4371 136.221 67.5305Z" fill="#FFAE80"/>
<path d="M132.474 46.1612C133.766 45.9022 134.929 46.6793 135.317 47.845L135.963 50.8238C136.222 51.9895 135.446 53.2847 134.154 53.5437C132.862 53.8027 131.699 53.0256 131.311 51.86L130.665 48.8811C130.406 47.7154 131.182 46.4203 132.474 46.1612Z" fill="#FFAD80"/>
<path d="M135.963 48.2342C135.705 47.3276 135.317 46.4209 134.413 46.1619C133.508 45.9029 133.379 46.0324 132.732 46.0324C131.699 46.0324 131.311 46.0324 130.923 46.1619C129.76 46.68 130.148 48.1046 130.665 47.9751C131.052 47.8456 131.44 47.7161 131.957 47.8456C132.732 48.1046 132.862 49.1408 132.862 49.1408L133.896 50.1769L134.8 50.695L134.929 51.4721L135.834 51.213C135.963 50.3064 136.351 49.9179 135.963 48.2342Z" fill="#2F313F"/>
<path d="M132.474 52.1161C132.604 52.5046 132.474 52.8932 132.087 53.2817C131.699 52.8932 131.311 52.5046 131.182 51.9865L131.053 51.3389C131.699 51.0799 132.345 51.4685 132.474 52.1161Z" fill="#2F313F"/>
<path d="M134.284 51.3435C134.783 51.3435 135.188 50.9376 135.188 50.4369C135.188 49.9362 134.783 49.5303 134.284 49.5303C133.784 49.5303 133.379 49.9362 133.379 50.4369C133.379 50.9376 133.784 51.3435 134.284 51.3435Z" fill="#FFAD80"/>
<path d="M133.49 51.341L134.247 51.1729L133.744 48.8968L132.987 49.065L133.49 51.341Z" fill="#2F313F"/>
<path d="M133.379 54.4537C134.154 54.3242 134.671 53.4176 134.542 52.6405L134.154 51.2158L131.182 51.8634L131.569 53.2881C131.828 54.0652 132.603 54.5832 133.379 54.4537Z" fill="#2F313F"/>
</svg>
