<svg width="198" height="126" viewBox="0 0 198 126" fill="none" xmlns="http://www.w3.org/2000/svg">
<path fill-rule="evenodd" clip-rule="evenodd" d="M153.438 121.649C156.571 121.649 159.033 119.047 159.033 115.776V65.5957H78.2451V116.966C78.2451 119.568 80.2592 121.649 82.7209 121.649H153.438Z" fill="white"/>
<path d="M109.352 73.3271H113.604C115.171 73.3271 116.364 74.591 116.364 76.0778V80.3152C116.364 81.8764 115.096 83.0659 113.604 83.0659H109.352C107.786 83.0659 106.592 81.8021 106.592 80.3152V76.0778C106.517 74.5166 107.786 73.3271 109.352 73.3271Z" fill="#D3D4DC"/>
<path d="M109.352 89.1611H113.604C115.171 89.1611 116.364 90.4249 116.364 91.9118V96.1492C116.364 97.7104 115.096 98.8998 113.604 98.8998H109.352C107.786 98.8998 106.592 97.636 106.592 96.1492V91.9118C106.517 90.4249 107.786 89.1611 109.352 89.1611Z" fill="#D3D4DC"/>
<path d="M138.146 89.1611H142.398C143.964 89.1611 145.158 90.4249 145.158 91.9118V96.1492C145.158 97.7104 143.89 98.8998 142.398 98.8998H138.146C136.579 98.8998 135.386 97.636 135.386 96.1492V91.9118C135.386 90.4249 136.654 89.1611 138.146 89.1611Z" fill="#D3D4DC"/>
<path d="M138.146 73.3271H142.398C143.964 73.3271 145.158 74.591 145.158 76.0778V80.3152C145.158 81.8764 143.89 83.0659 142.398 83.0659H138.146C136.579 83.0659 135.386 81.8021 135.386 80.3152V76.0778C135.386 74.5166 136.654 73.3271 138.146 73.3271Z" fill="#D3D4DC"/>
<path d="M123.749 89.1611H128.001C129.568 89.1611 130.761 90.4249 130.761 91.9118V96.1492C130.761 97.7104 129.493 98.8998 128.001 98.8998H123.749C122.183 98.8998 120.989 97.636 120.989 96.1492V91.9118C120.989 90.4249 122.183 89.1611 123.749 89.1611Z" fill="#34D186"/>
<path d="M123.749 73.3271H128.001C129.568 73.3271 130.761 74.591 130.761 76.0778V80.3152C130.761 81.8764 129.493 83.0659 128.001 83.0659H123.749C122.183 83.0659 120.989 81.8021 120.989 80.3152V76.0778C120.989 74.5166 122.183 73.3271 123.749 73.3271Z" fill="#D3D4DC"/>
<path d="M94.6566 89.1611H98.9086C100.475 89.1611 101.669 90.4249 101.669 91.9118V96.1492C101.669 97.7104 100.4 98.8998 98.9086 98.8998H94.6566C93.09 98.8998 91.8965 97.636 91.8965 96.1492V91.9118C91.8965 90.4249 93.09 89.1611 94.6566 89.1611Z" fill="#D3D4DC"/>
<path d="M109.352 105.072H113.604C115.171 105.072 116.364 106.336 116.364 107.823V112.06C116.364 113.622 115.096 114.811 113.604 114.811H109.352C107.786 114.811 106.592 113.547 106.592 112.06V107.823C106.517 106.262 107.786 105.072 109.352 105.072Z" fill="#D3D4DC"/>
<path d="M123.749 105.072H128.001C129.568 105.072 130.761 106.336 130.761 107.823V112.06C130.761 113.622 129.493 114.811 128.001 114.811H123.749C122.183 114.811 120.989 113.547 120.989 112.06V107.823C120.989 106.262 122.183 105.072 123.749 105.072Z" fill="#D3D4DC"/>
<path d="M138.146 105.072H142.398C143.964 105.072 145.158 106.336 145.158 107.823V112.06C145.158 113.622 143.89 114.811 142.398 114.811H138.146C136.579 114.811 135.386 113.547 135.386 112.06V107.823C135.386 106.262 136.654 105.072 138.146 105.072Z" fill="#D3D4DC"/>
<path d="M94.6566 105.072H98.9086C100.475 105.072 101.669 106.336 101.669 107.823V112.06C101.669 113.622 100.4 114.811 98.9086 114.811H94.6566C93.09 114.811 91.8965 113.547 91.8965 112.06V107.823C91.8965 106.262 93.09 105.072 94.6566 105.072Z" fill="#D3D4DC"/>
<path fill-rule="evenodd" clip-rule="evenodd" d="M154.558 40.3945H82.6467C80.185 40.3945 78.1709 42.4017 78.1709 44.855V67.2317H159.034V44.855C159.034 42.4017 157.019 40.3945 154.558 40.3945Z" fill="#27B973"/>
<path d="M159.108 55.4102H78.2451V67.1561H159.108V55.4102Z" fill="#34D186"/>
<path d="M94.3576 52.6595C97.3651 52.6595 99.8032 50.2298 99.8032 47.2326C99.8032 44.2354 97.3651 41.8057 94.3576 41.8057C91.3502 41.8057 88.9121 44.2354 88.9121 47.2326C88.9121 50.2298 91.3502 52.6595 94.3576 52.6595Z" fill="white"/>
<path d="M94.3584 34C95.6265 34 96.6709 35.0408 96.6709 36.3046V47.3814C96.6709 48.6452 95.6265 49.686 94.3584 49.686C93.0903 49.686 92.0459 48.6452 92.0459 47.3814V36.3046C92.1205 35.0408 93.0903 34 94.3584 34Z" fill="#585A68"/>
<path d="M154.035 122.02H75.5V120.756H154.11C156.497 120.756 158.436 118.823 158.436 116.444V44.6304C158.436 42.9206 157.019 41.4337 155.229 41.4337H142.846V40.1699H155.229C157.69 40.1699 159.63 42.1771 159.63 44.5561V116.295C159.705 119.492 157.168 122.02 154.035 122.02Z" fill="#585A68"/>
<path d="M142.846 52.6595C145.853 52.6595 148.291 50.2298 148.291 47.2326C148.291 44.2354 145.853 41.8057 142.846 41.8057C139.838 41.8057 137.4 44.2354 137.4 47.2326C137.4 50.2298 139.838 52.6595 142.846 52.6595Z" fill="white"/>
<path d="M142.846 34C144.114 34 145.158 35.0408 145.158 36.3046V47.3814C145.158 48.6452 144.114 49.686 142.846 49.686C141.578 49.686 140.533 48.6452 140.533 47.3814V36.3046C140.608 35.0408 141.578 34 142.846 34Z" fill="#585A68"/>
<path d="M79.439 67.2295H78.1709V117.336H79.439V67.2295Z" fill="#585A68"/>
<path d="M65 126C79.9117 126 92 113.912 92 99C92 84.0883 79.9117 72 65 72C50.0883 72 38 84.0883 38 99C38 113.912 50.0883 126 65 126Z" fill="white"/>
<path d="M65.0002 75.6406C52.1373 75.6406 41.6406 86.0766 41.6406 98.9395C41.6406 111.802 52.0766 122.299 64.9395 122.299C77.8024 122.299 88.299 111.863 88.299 99.0002C88.299 99.0002 88.299 99.0002 88.299 98.9395C88.299 86.1373 77.8631 75.7013 65.0002 75.6406ZM74.8294 108.769C74.4047 109.193 73.7979 109.436 73.1912 109.497C72.5844 109.497 71.9777 109.193 71.553 108.769L63.362 100.638C62.8766 100.214 62.6339 99.6069 62.6339 99.0002V87.2901C62.6339 86.0159 63.6653 84.9844 64.9395 84.9844C66.2137 84.9844 67.2451 86.0159 67.2451 87.2901V98.0294L74.708 105.492C75.6181 106.342 75.6181 107.798 74.7687 108.708C74.8294 108.708 74.8294 108.769 74.8294 108.769Z" fill="#34D186"/>
<path d="M65.0001 123.026C52.4405 123.026 41.8226 113.197 41.0338 100.455C40.6091 94.0237 42.7327 87.835 46.9799 83.0417C51.2271 78.2485 57.1125 75.3361 63.4832 74.9721C76.7102 74.1833 88.1776 84.2552 88.9664 97.4822C89.8158 110.709 79.6832 122.177 66.4563 122.965C65.9709 123.026 65.4855 123.026 65.0001 123.026ZM65.0001 75.9428C64.5147 75.9428 64.0293 75.9428 63.5439 76.0035C57.4158 76.3676 51.7731 79.1586 47.708 83.7698C43.6428 88.381 41.6405 94.2664 42.0046 100.395C42.7934 112.59 52.9259 121.995 64.9394 121.995C65.4248 121.995 65.9102 121.995 66.3956 121.934C79.0765 121.145 88.7237 110.224 87.9349 97.5428C87.2068 85.3473 77.0743 75.9428 65.0001 75.9428Z" fill="#585A68"/>
</svg>
