<svg width="50" height="50" viewBox="0 0 50 50" fill="none" xmlns="http://www.w3.org/2000/svg">
<circle cx="25" cy="25" r="25" fill="#4070F4" fill-opacity="0.2"/>
<path d="M26.9667 26.8583C26.4096 27.3075 25.7156 27.5524 25 27.5524C24.2844 27.5524 23.5904 27.3075 23.0333 26.8583C22.8632 26.7169 22.6438 26.6488 22.4234 26.6691C22.203 26.6895 21.9998 26.7965 21.8583 26.9667C21.7169 27.1368 21.6488 27.3562 21.6691 27.5766C21.6895 27.7969 21.7965 28.0002 21.9667 28.1417C22.8178 28.8522 23.8913 29.2414 25 29.2414C26.1087 29.2414 27.1822 28.8522 28.0333 28.1417C28.2035 28.0002 28.3105 27.7969 28.3309 27.5766C28.3512 27.3562 28.2831 27.1368 28.1417 26.9667C28.0716 26.8824 27.9857 26.8127 27.8887 26.7617C27.7918 26.7107 27.6857 26.6792 27.5766 26.6691C27.3562 26.6488 27.1368 26.7169 26.9667 26.8583ZM22.5 24.1667C22.6648 24.1667 22.8259 24.1178 22.963 24.0262C23.1 23.9346 23.2068 23.8045 23.2699 23.6522C23.333 23.5 23.3495 23.3324 23.3173 23.1707C23.2852 23.0091 23.2058 22.8606 23.0893 22.7441C22.9727 22.6275 22.8242 22.5482 22.6626 22.516C22.5009 22.4838 22.3334 22.5004 22.1811 22.5634C22.0288 22.6265 21.8987 22.7333 21.8071 22.8703C21.7155 23.0074 21.6667 23.1685 21.6667 23.3333C21.6667 23.5543 21.7545 23.7663 21.9107 23.9226C22.067 24.0789 22.279 24.1667 22.5 24.1667ZM27.5 22.5C27.3352 22.5 27.1741 22.5489 27.037 22.6404C26.9 22.732 26.7932 22.8621 26.7301 23.0144C26.667 23.1667 26.6505 23.3342 26.6827 23.4959C26.7148 23.6575 26.7942 23.806 26.9107 23.9226C27.0273 24.0391 27.1758 24.1185 27.3374 24.1506C27.4991 24.1828 27.6666 24.1663 27.8189 24.1032C27.9712 24.0402 28.1013 23.9333 28.1929 23.7963C28.2845 23.6593 28.3333 23.4981 28.3333 23.3333C28.3333 23.1123 28.2455 22.9003 28.0893 22.7441C27.933 22.5878 27.721 22.5 27.5 22.5ZM25 16.6667C23.3518 16.6667 21.7407 17.1554 20.3702 18.0711C18.9998 18.9868 17.9317 20.2882 17.301 21.811C16.6703 23.3337 16.5052 25.0092 16.8268 26.6257C17.1483 28.2423 17.942 29.7271 19.1074 30.8925C20.2729 32.058 21.7577 32.8517 23.3742 33.1732C24.9908 33.4947 26.6663 33.3297 28.189 32.699C29.7117 32.0683 31.0132 31.0002 31.9289 29.6297C32.8446 28.2593 33.3333 26.6482 33.3333 25C33.3333 23.9056 33.1178 22.822 32.699 21.811C32.2802 20.7999 31.6664 19.8813 30.8926 19.1074C30.1187 18.3336 29.2001 17.7198 28.189 17.301C27.178 16.8822 26.0943 16.6667 25 16.6667ZM25 31.6667C23.6815 31.6667 22.3925 31.2757 21.2962 30.5431C20.1999 29.8106 19.3454 28.7694 18.8408 27.5512C18.3362 26.333 18.2042 24.9926 18.4614 23.6994C18.7187 22.4062 19.3536 21.2183 20.286 20.2859C21.2183 19.3536 22.4062 18.7187 23.6994 18.4614C24.9926 18.2042 26.333 18.3362 27.5512 18.8408C28.7694 19.3454 29.8106 20.1999 30.5431 21.2962C31.2757 22.3925 31.6667 23.6814 31.6667 25C31.6667 26.7681 30.9643 28.4638 29.714 29.714C28.4638 30.9643 26.7681 31.6667 25 31.6667Z" fill="#4070F4"/>
</svg>
