<svg width="32" height="32" viewBox="0 0 32 32" fill="none" xmlns="http://www.w3.org/2000/svg">
<path d="M13.5198 10.4004H16.3598C18.4265 10.4004 19.5865 11.4538 19.5865 13.4137C19.5865 15.3205 18.3865 16.387 16.3465 16.387H13.5198V10.4004Z" fill="#2F313F"/>
<path fill-rule="evenodd" clip-rule="evenodd" d="M5.33317 2.66699H26.6665C28.1332 2.66699 29.3332 3.86702 29.3332 5.33366V26.667C29.3332 28.1336 28.1332 29.3337 26.6665 29.3337H5.33317C3.8665 29.3337 2.6665 28.1336 2.6665 26.667V5.33366C2.6665 3.86702 3.8665 2.66699 5.33317 2.66699ZM13.5332 18.7603H16.9998C20.2398 18.7603 22.4932 16.5869 22.4932 13.4137C22.4932 10.187 20.3065 8.00033 17.1198 8.00033H10.6665V24.0003H13.5332V18.7603Z" fill="#2F313F"/>
</svg>
