<svg width="50" height="65" viewBox="0 0 50 65" fill="none" xmlns="http://www.w3.org/2000/svg">
<g clip-path="url(#clip0_13_63)">
<path fill-rule="evenodd" clip-rule="evenodd" d="M50 23.871C50 36.2904 40 46.2904 27.5806 46.2904C15.1613 46.2904 5.16129 36.2904 5.16129 23.871C5.16129 11.4517 15.2419 1.45166 27.5806 1.45166C40 1.45166 50 11.5323 50 23.871Z" fill="#EEEEF6"/>
<path d="M28.0645 42.4194C31.7613 42.4194 34.7581 39.4226 34.7581 35.7259C34.7581 32.0292 31.7613 29.0323 28.0645 29.0323C24.3678 29.0323 21.371 32.0292 21.371 35.7259C21.371 39.4226 24.3678 42.4194 28.0645 42.4194Z" fill="#4070F4"/>
<path d="M12.742 7.09683C13.5484 7.25812 14.3549 7.41941 15.242 7.41941C19.3549 7.41941 22.9839 5.0807 24.7581 1.6936C20.242 2.25812 16.0484 4.1936 12.742 7.09683ZM5.3226 25.9678C5.80647 30.8871 7.8226 35.3226 10.8871 38.7904C11.2097 37.8226 11.371 36.7743 11.371 35.6452C11.371 31.371 8.87099 27.742 5.3226 25.9678Z" fill="#4070F4"/>
<path fill-rule="evenodd" clip-rule="evenodd" d="M29.5968 1.53235C26.8549 4.43557 25.0807 8.38719 25.0807 12.742C25.0807 21.7743 32.3387 29.0324 41.371 29.0324C44.4355 29.0324 47.3387 28.1453 49.8387 26.613C49.9194 25.7259 50 24.7582 50 23.8711C50 12.1775 41.0484 2.58074 29.5968 1.53235Z" fill="#4070F4"/>
<path d="M4.35484 9.03235H24.8387C26.9355 9.03235 28.5484 10.7259 28.5484 12.742V59.6775C28.5484 61.7743 26.8548 63.3872 24.8387 63.3872H4.35484C2.25806 63.3872 0.645161 61.6936 0.645161 59.6775V12.8227C0.564515 10.7259 2.25806 9.03235 4.35484 9.03235Z" fill="#E6E7EB"/>
<path d="M-0.7258 55.4032H29.9194V64.5968H-0.7258V55.4032ZM-0.322574 5.72583H29.3548V14.9194H-0.322574V5.72583Z" fill="#6675FF"/>
<path d="M14.5968 61.6129C15.8439 61.6129 16.8548 60.602 16.8548 59.3549C16.8548 58.1078 15.8439 57.0968 14.5968 57.0968C13.3497 57.0968 12.3387 58.1078 12.3387 59.3549C12.3387 60.602 13.3497 61.6129 14.5968 61.6129Z" fill="white"/>
</g>
<defs>
<clipPath id="clip0_13_63">
<rect width="50" height="64.5968" fill="white"/>
</clipPath>
</defs>
</svg>
