<svg width="20" height="20" viewBox="0 0 20 20" fill="none" xmlns="http://www.w3.org/2000/svg">
<path d="M5.08333 1.16671L14.75 6.75004L12 9.50004L3.33333 0.916707C3.5 0.916707 3.75 0.833374 3.91667 0.833374C4.33333 0.833374 4.75 0.916707 5.08333 1.16671ZM1.75 17V3.00004C1.75 2.33337 2.08333 1.75004 2.58333 1.33337L11.3333 10.0834L2.66667 18.75C2.08333 18.3334 1.75 17.6667 1.75 17ZM5.08333 18.9167C4.58333 19.1667 4 19.25 3.5 19.1667L12 10.75L14.6667 13.4167L5.08333 18.9167ZM17.1667 11.9167L15.4167 12.9167L12.5 10.0834L15.4167 7.16671L17.0833 8.16671C17.75 8.58337 18.1667 9.25004 18.1667 10.0834C18.25 10.75 17.8333 11.5 17.1667 11.9167Z" fill="white"/>
</svg>
