<svg width="90" height="35" viewBox="0 0 90 35" fill="none" xmlns="http://www.w3.org/2000/svg">
<g clip-path="url(#clip0_13_11)">
<path d="M78.0566 17.3619H75.0253V34.6102H78.0566C81.3835 34.6102 84.1192 30.7452 84.1192 25.9861C84.1192 21.2269 81.3532 17.3619 78.0566 17.3619Z" fill="#2F313F"/>
<path d="M75.0177 34.6102C78.3409 34.6102 81.0348 30.749 81.0348 25.9861C81.0348 21.2231 78.3409 17.3619 75.0177 17.3619C71.6945 17.3619 69.0005 21.2231 69.0005 25.9861C69.0005 30.749 71.6945 34.6102 75.0177 34.6102Z" fill="#2F313F"/>
<path d="M37.3232 17.3619H34.2918V34.6102H37.3232C40.65 34.6102 43.3403 30.7452 43.3403 25.9861C43.3403 21.2269 40.65 17.3619 37.3232 17.3619Z" fill="#2F313F"/>
<path d="M34.3146 34.6102C37.6378 34.6102 40.3318 30.749 40.3318 25.9861C40.3318 21.2231 37.6378 17.3619 34.3146 17.3619C30.9914 17.3619 28.2974 21.2231 28.2974 25.9861C28.2974 30.749 30.9914 34.6102 34.3146 34.6102Z" fill="#2F313F"/>
<path d="M14.8383 18.8019H11.807V34.6102H14.8383C18.1652 34.6102 20.8555 30.7453 20.8555 25.9861C20.8555 21.2269 18.1879 18.8019 14.8383 18.8019ZM53.9576 18.8019H50.9262V34.6102H53.9576C57.2844 34.6102 59.9747 30.7453 59.9747 25.9861C59.9747 21.2269 57.2844 18.8019 53.9576 18.8019Z" fill="#2F313F"/>
<path d="M89.9924 21.5603V25.9406C90.002 26.6661 89.7512 27.3709 89.2853 27.9272C88.8195 28.4834 88.1696 28.8541 87.4537 28.9719L80.4286 30.0708H27.1682L24.8341 28.1156C22.7349 27.5321 22.2044 12.042 22.2044 12.042L22.7273 10.5263L25.3798 3.03138C25.7531 2.75777 26.1053 2.4563 26.4331 2.12956C26.628 1.93467 26.8127 1.72977 26.9864 1.51572C28.4035 -0.136355 25.7662 5.46568e-05 28.3883 5.46568e-05H49.0544C51.759 0.0142971 54.412 0.740948 56.7464 2.10682C57.239 2.37964 57.724 2.68278 58.209 3.00864C58.55 3.23599 58.8986 3.49366 59.2321 3.76647L69.7204 10.5339L87.1505 17.3544C87.9354 17.6668 88.6177 18.1916 89.1209 18.87L89.1664 18.9458C89.6322 19.5792 89.913 20.3296 89.9773 21.1132C89.9974 21.2614 90.0024 21.4112 89.9924 21.5603Z" fill="url(#paint0_linear_13_11)"/>
<path d="M65.8252 21.4845V25.5768C65.8252 26.7827 65.3461 27.9393 64.4934 28.792C63.6407 29.6447 62.4841 30.1238 61.2782 30.1238H10.6096L6.37335 28.4187C2.80396 27.4411 -0.447132 25.1979 0.0530367 20.7039L0.992747 13.1863C1.09044 12.4095 1.42631 11.6821 1.95419 11.1041C2.48206 10.526 3.17604 10.1256 3.94071 9.9579L4.14532 9.91243C5.65674 9.60205 7.05548 8.88697 8.19214 7.84355L11.5493 4.54699C14.6337 1.75059 18.2107 0 22.159 0H29.5023C31.9855 0.000174074 34.4134 0.733028 36.482 2.10677C37.5455 2.82543 38.4958 3.69901 39.3011 4.69855L45.2349 10.5338L62.9 17.2634C63.7561 17.5902 64.4936 18.1682 65.0156 18.9214C65.5376 19.6747 65.8198 20.5681 65.8252 21.4845Z" fill="url(#paint1_linear_13_11)"/>
<path d="M11.8297 34.6102C15.1529 34.6102 17.8469 30.749 17.8469 25.9861C17.8469 21.2231 15.1529 17.3619 11.8297 17.3619C8.50654 17.3619 5.81256 21.2231 5.81256 25.9861C5.81256 30.749 8.50654 34.6102 11.8297 34.6102Z" fill="#2F313F"/>
<path d="M11.8297 31.7835C13.7759 31.7835 15.3536 29.1879 15.3536 25.9861C15.3536 22.7843 13.7759 20.1887 11.8297 20.1887C9.88353 20.1887 8.30582 22.7843 8.30582 25.9861C8.30582 29.1879 9.88353 31.7835 11.8297 31.7835Z" fill="#A9ABB9"/>
<path d="M50.949 34.6102C54.2722 34.6102 56.9662 30.749 56.9662 25.9861C56.9662 21.2231 54.2722 17.3619 50.949 17.3619C47.6258 17.3619 44.9318 21.2231 44.9318 25.9861C44.9318 30.749 47.6258 34.6102 50.949 34.6102Z" fill="#2F313F"/>
<path d="M50.949 31.7835C52.8952 31.7835 54.4729 29.1879 54.4729 25.9861C54.4729 22.7843 52.8952 20.1887 50.949 20.1887C49.0028 20.1887 47.425 22.7843 47.425 25.9861C47.425 29.1879 49.0028 31.7835 50.949 31.7835Z" fill="#A9ABB9"/>
<path d="M69.7205 10.5339H45.2349L39.3011 4.69859C38.4842 3.69618 37.5211 2.82246 36.4441 2.10681H52.2903C55.1966 2.115 58.0387 2.96235 60.4749 4.54703L69.7205 10.5339Z" fill="#585A68"/>
<path d="M45.2349 10.5339H15.2021C14.7472 10.5157 14.3083 10.3613 13.9421 10.0908C13.576 9.82022 13.2995 9.446 13.1484 9.01654C12.9974 8.58708 12.9788 8.12217 13.0949 7.682C13.2111 7.24182 13.4568 6.84667 13.8001 6.5477L15.9144 4.88805C18.1514 3.09628 20.9298 2.11584 23.7959 2.10681H36.4441C37.5211 2.82246 38.4842 3.69618 39.3011 4.69859L45.2349 10.5339Z" fill="#2F313F"/>
<path d="M89.9924 21.5603V23.076H86.908C86.6753 23.0736 86.4462 23.0177 86.2386 22.9126C86.0309 22.8075 85.8503 22.6559 85.7107 22.4697L84.4906 20.848C84.3494 20.6621 84.1672 20.5114 83.9582 20.4076C83.7492 20.3037 83.519 20.2496 83.2856 20.2493H72.7518C72.5197 20.2507 72.291 20.3055 72.0834 20.4093C71.8758 20.5131 71.6948 20.6631 71.5544 20.848L70.3343 22.4697C70.1939 22.6569 70.012 22.8091 69.803 22.9143C69.5939 23.0195 69.3633 23.0748 69.1293 23.076H63.1728C62.9375 23.073 62.7061 23.0154 62.4969 22.9075C62.2878 22.7996 62.1066 22.6446 61.9678 22.4546L61.1569 21.3405C60.9966 21.1154 60.9009 20.8506 60.8801 20.575C60.8594 20.2993 60.9144 20.0233 61.0393 19.7766C61.1642 19.53 61.3541 19.3222 61.5886 19.1758C61.823 19.0294 62.0931 18.9498 62.3695 18.9458H89.1512C89.6171 19.5792 89.8978 20.3296 89.9621 21.1132C89.9873 21.2608 89.9974 21.4106 89.9924 21.5603Z" fill="#A9ABB9"/>
</g>
<defs>
<linearGradient id="paint0_linear_13_11" x1="56.1022" y1="5.46543e-05" x2="56.1022" y2="30.0935" gradientUnits="userSpaceOnUse">
<stop stop-color="#EAE9EE"/>
<stop offset="0.47" stop-color="#E7E6EC"/>
<stop offset="0.8" stop-color="#DEDEE4"/>
<stop offset="1" stop-color="#D4D4DB"/>
</linearGradient>
<linearGradient id="paint1_linear_13_11" x1="32.9126" y1="-0.128831" x2="32.9126" y2="32.4882" gradientUnits="userSpaceOnUse">
<stop stop-color="#DCDCE3"/>
<stop offset="0.33" stop-color="#D8D8DF"/>
<stop offset="0.66" stop-color="#CCCCD5"/>
<stop offset="0.99" stop-color="#B8B8C3"/>
<stop offset="1" stop-color="#B7B7C2"/>
</linearGradient>
<clipPath id="clip0_13_11">
<rect width="90" height="34.6101" fill="white"/>
</clipPath>
</defs>
</svg>
