<svg width="50" height="50" viewBox="0 0 50 50" fill="none" xmlns="http://www.w3.org/2000/svg">
<circle cx="25" cy="25" r="25" fill="#4070F4" fill-opacity="0.2"/>
<path d="M30.8333 22.9167H30.5667L29.525 20.3167C29.339 19.8544 29.019 19.4582 28.6062 19.1791C28.1934 18.8999 27.7066 18.7505 27.2083 18.75H22.2083C21.6294 18.7484 21.0678 18.9477 20.6195 19.3139C20.1712 19.6802 19.8638 20.1907 19.75 20.7583L19.3167 22.9167H19.1667C18.5036 22.9167 17.8677 23.1801 17.3989 23.6489C16.93 24.1178 16.6667 24.7536 16.6667 25.4167V27.9167C16.6667 28.1377 16.7545 28.3497 16.9107 28.5059C17.067 28.6622 17.279 28.75 17.5 28.75H18.3333C18.3333 29.4131 18.5967 30.0489 19.0656 30.5178C19.5344 30.9866 20.1703 31.25 20.8333 31.25C21.4964 31.25 22.1322 30.9866 22.6011 30.5178C23.0699 30.0489 23.3333 29.4131 23.3333 28.75H26.6667C26.6667 29.4131 26.93 30.0489 27.3989 30.5178C27.8677 30.9866 28.5036 31.25 29.1667 31.25C29.8297 31.25 30.4656 30.9866 30.9344 30.5178C31.4033 30.0489 31.6667 29.4131 31.6667 28.75H32.5C32.721 28.75 32.933 28.6622 33.0892 28.5059C33.2455 28.3497 33.3333 28.1377 33.3333 27.9167V25.4167C33.3333 24.7536 33.0699 24.1178 32.6011 23.6489C32.1322 23.1801 31.4964 22.9167 30.8333 22.9167ZM25.8333 20.4167H27.2083C27.3738 20.4182 27.5351 20.4689 27.6716 20.5624C27.8082 20.6559 27.9138 20.7879 27.975 20.9417L28.7667 22.9167H25.8333V20.4167ZM21.3833 21.0833C21.4223 20.8923 21.527 20.7209 21.6793 20.5991C21.8315 20.4773 22.0217 20.4127 22.2167 20.4167H24.1667V22.9167H21.0167L21.3833 21.0833ZM20.8333 29.5833C20.6685 29.5833 20.5074 29.5345 20.3703 29.4429C20.2333 29.3513 20.1265 29.2212 20.0634 29.0689C20.0004 28.9166 19.9838 28.7491 20.016 28.5874C20.0482 28.4258 20.1275 28.2773 20.2441 28.1608C20.3606 28.0442 20.5091 27.9648 20.6707 27.9327C20.8324 27.9005 21 27.917 21.1522 27.9801C21.3045 28.0432 21.4346 28.15 21.5262 28.287C21.6178 28.4241 21.6667 28.5852 21.6667 28.75C21.6667 28.971 21.5789 29.183 21.4226 29.3393C21.2663 29.4955 21.0543 29.5833 20.8333 29.5833ZM29.1667 29.5833C29.0018 29.5833 28.8407 29.5345 28.7037 29.4429C28.5666 29.3513 28.4598 29.2212 28.3968 29.0689C28.3337 28.9166 28.3172 28.7491 28.3493 28.5874C28.3815 28.4258 28.4609 28.2773 28.5774 28.1608C28.6939 28.0442 28.8424 27.9648 29.0041 27.9327C29.1657 27.9005 29.3333 27.917 29.4856 27.9801C29.6378 28.0432 29.768 28.15 29.8595 28.287C29.9511 28.4241 30 28.5852 30 28.75C30 28.971 29.9122 29.183 29.7559 29.3393C29.5996 29.4955 29.3877 29.5833 29.1667 29.5833ZM31.6667 27.0833H31.0167C30.7823 26.8255 30.4967 26.6196 30.1781 26.4786C29.8596 26.3377 29.515 26.2649 29.1667 26.2649C28.8183 26.2649 28.4738 26.3377 28.1552 26.4786C27.8366 26.6196 27.551 26.8255 27.3167 27.0833H22.6833C22.449 26.8255 22.1634 26.6196 21.8448 26.4786C21.5262 26.3377 21.1817 26.2649 20.8333 26.2649C20.485 26.2649 20.1404 26.3377 19.8218 26.4786C19.5033 26.6196 19.2176 26.8255 18.9833 27.0833H18.3333V25.4167C18.3333 25.1957 18.4211 24.9837 18.5774 24.8274C18.7337 24.6711 18.9456 24.5833 19.1667 24.5833H30.8333C31.0543 24.5833 31.2663 24.6711 31.4226 24.8274C31.5789 24.9837 31.6667 25.1957 31.6667 25.4167V27.0833Z" fill="#4070F4"/>
</svg>
