<svg width="50" height="50" viewBox="0 0 50 50" fill="none" xmlns="http://www.w3.org/2000/svg">
<circle cx="25" cy="25" r="25" fill="#4070F4" fill-opacity="0.2"/>
<path d="M27.3083 19.8917C27.4997 20.0003 27.7262 20.0289 27.9386 19.9711C28.1509 19.9133 28.3317 19.7739 28.4417 19.5833C28.5326 19.4228 28.6743 19.297 28.8445 19.2256C29.0147 19.1543 29.2037 19.1415 29.3819 19.1891C29.5602 19.2368 29.7176 19.3423 29.8295 19.489C29.9413 19.6358 30.0013 19.8155 30 20C30 20.221 29.9122 20.433 29.7559 20.5893C29.5996 20.7455 29.3877 20.8333 29.1667 20.8333C28.9457 20.8333 28.7337 20.9211 28.5774 21.0774C28.4211 21.2337 28.3333 21.4457 28.3333 21.6667C28.3333 21.8877 28.4211 22.0996 28.5774 22.2559C28.7337 22.4122 28.9457 22.5 29.1667 22.5C29.6054 22.4997 30.0364 22.384 30.4163 22.1644C30.7961 21.9448 31.1115 21.6291 31.3307 21.249C31.5499 20.8689 31.6652 20.4378 31.6651 19.999C31.6649 19.5602 31.5492 19.1292 31.3297 18.7493C31.1102 18.3694 30.7946 18.0539 30.4145 17.8346C30.0345 17.6153 29.6034 17.4999 29.1647 17.5C28.7259 17.5001 28.2949 17.6156 27.9149 17.835C27.5349 18.0545 27.2194 18.37 27 18.75C26.9449 18.8451 26.9092 18.9502 26.8948 19.0592C26.8805 19.1681 26.8879 19.2789 26.9166 19.385C26.9452 19.4911 26.9946 19.5905 27.0618 19.6775C27.1291 19.7644 27.2128 19.8372 27.3083 19.8917ZM30.8917 25.8333C30.6729 25.8049 30.4518 25.8644 30.2769 25.9988C30.1019 26.1331 29.9874 26.3313 29.9583 26.55C29.7835 27.9626 29.0981 29.2626 28.0314 30.205C26.9646 31.1474 25.5901 31.6673 24.1667 31.6667H19.5083L20.05 31.125C20.2052 30.9689 20.2923 30.7577 20.2923 30.5375C20.2923 30.3173 20.2052 30.1061 20.05 29.95C19.2375 29.1343 18.6845 28.0963 18.4607 26.9669C18.237 25.8375 18.3525 24.6671 18.7927 23.6032C19.2328 22.5393 19.978 21.6294 20.9343 20.9882C21.8906 20.347 23.0153 20.0032 24.1667 20C24.3877 20 24.5996 19.9122 24.7559 19.7559C24.9122 19.5996 25 19.3877 25 19.1667C25 18.9457 24.9122 18.7337 24.7559 18.5774C24.5996 18.4211 24.3877 18.3333 24.1667 18.3333C22.7577 18.3392 21.3789 18.7419 20.1882 19.4952C18.9975 20.2485 18.043 21.3219 17.4342 22.5926C16.8254 23.8633 16.5869 25.2797 16.7459 26.6797C16.9049 28.0797 17.4551 29.4066 18.3333 30.5083L16.9083 31.9083C16.7927 32.0255 16.7144 32.1743 16.6832 32.336C16.6521 32.4976 16.6695 32.6649 16.7333 32.8167C16.7959 32.9688 16.902 33.0991 17.0385 33.1911C17.1749 33.283 17.3355 33.3325 17.5 33.3333H24.1667C25.9929 33.3336 27.7564 32.6675 29.1265 31.4601C30.4966 30.2526 31.379 28.5868 31.6083 26.775C31.6236 26.666 31.6171 26.5552 31.5893 26.4487C31.5614 26.3423 31.5128 26.2424 31.4462 26.1549C31.3795 26.0673 31.2962 25.9938 31.2011 25.9387C31.1059 25.8835 31.0007 25.8477 30.8917 25.8333ZM29.4833 23.3917C29.3316 23.3245 29.1633 23.3042 29 23.3333L28.85 23.3833L28.7 23.4583L28.575 23.5667C28.5 23.6435 28.4406 23.734 28.4 23.8333C28.3507 23.9373 28.3278 24.0518 28.3333 24.1667C28.3309 24.2778 28.3507 24.3883 28.3917 24.4917C28.4348 24.5917 28.4971 24.6823 28.575 24.7583C28.6529 24.8356 28.7452 24.8967 28.8467 24.9381C28.9483 24.9796 29.057 25.0006 29.1667 25C29.3877 25 29.5996 24.9122 29.7559 24.7559C29.9122 24.5996 30 24.3877 30 24.1667C30.0028 24.0574 29.98 23.9489 29.9333 23.85C29.8438 23.6498 29.6836 23.4895 29.4833 23.4V23.3917Z" fill="#4070F4"/>
</svg>
