<svg width="32" height="32" viewBox="0 0 32 32" fill="none" xmlns="http://www.w3.org/2000/svg">
<path d="M25.3332 5.33301H6.6665C4.39984 5.33301 2.6665 7.06634 2.6665 9.33301V22.6663C2.6665 24.933 4.39984 26.6663 6.6665 26.6663H25.3332C27.5998 26.6663 29.3332 24.933 29.3332 22.6663V9.33301C29.3332 7.06634 27.5998 5.33301 25.3332 5.33301ZM11.9998 10.6663C13.4665 10.6663 14.6665 11.8663 14.6665 13.333C14.6665 14.7997 13.4665 15.9997 11.9998 15.9997C10.5332 15.9997 9.33317 14.7997 9.33317 13.333C9.33317 11.8663 10.5332 10.6663 11.9998 10.6663ZM15.9998 21.333H7.99984V18.6663C7.99984 17.8663 8.53317 17.333 9.33317 17.333H14.6665C15.4665 17.333 15.9998 17.8663 15.9998 18.6663V21.333ZM23.9998 17.333H19.9998C19.1998 17.333 18.6665 16.7997 18.6665 15.9997C18.6665 15.1997 19.1998 14.6663 19.9998 14.6663H23.9998C24.7998 14.6663 25.3332 15.1997 25.3332 15.9997C25.3332 16.7997 24.7998 17.333 23.9998 17.333ZM23.9998 13.333H19.9998C19.1998 13.333 18.6665 12.7997 18.6665 11.9997C18.6665 11.1997 19.1998 10.6663 19.9998 10.6663H23.9998C24.7998 10.6663 25.3332 11.1997 25.3332 11.9997C25.3332 12.7997 24.7998 13.333 23.9998 13.333Z" fill="#2F313F"/>
</svg>
