<svg width="80" height="64" viewBox="0 0 80 64" fill="none" xmlns="http://www.w3.org/2000/svg">
<g clip-path="url(#clip0_13_35)">
<path d="M22.3426 15.5946L62.1239 0.188424C62.4741 0.0527765 62.8477 -0.0125551 63.2232 -0.00383609C63.5987 0.00488156 63.9688 0.0874771 64.3124 0.239234C64.656 0.390991 64.9664 0.608938 65.2257 0.880629C65.4851 1.15232 65.6884 1.47244 65.824 1.8227L70.3294 13.4563C70.4651 13.8066 70.5304 14.1801 70.5217 14.5556C70.513 14.9312 70.4304 15.3013 70.2786 15.6449C70.1268 15.9885 69.9089 16.2988 69.6372 16.5582C69.3655 16.8175 69.0454 17.0208 68.6951 17.1565L28.9139 32.5626L22.3426 15.5946Z" fill="#4070F4"/>
<path d="M23.8403 14.8889L69.0003 7.13417C69.7764 7.0009 70.5737 7.18139 71.2167 7.63595C71.8597 8.0905 72.2959 8.78188 72.4291 9.55799L74.5175 21.7194C74.6507 22.4955 74.4702 23.2928 74.0157 23.9358C73.5611 24.5789 72.8697 25.015 72.0936 25.1482L26.9336 32.903L23.8403 14.8889Z" fill="#4070F4"/>
<path d="M73.5319 14.5533H22.6907C20.4581 14.5533 18.6481 16.3633 18.6481 18.5959V59.2914C18.6481 61.5241 20.4581 63.334 22.6907 63.334H73.5319C75.7645 63.334 77.5745 61.5241 77.5745 59.2914V18.5959C77.5745 16.3633 75.7645 14.5533 73.5319 14.5533Z" fill="#E7E8EC"/>
<path d="M76.8876 30.3151H64.7077C62.984 30.3151 61.5866 31.7124 61.5866 33.4361V44.4598C61.5866 46.1835 62.984 47.5809 64.7077 47.5809H76.8876C78.6114 47.5809 80.0087 46.1835 80.0087 44.4598V33.4361C80.0087 31.7124 78.6114 30.3151 76.8876 30.3151Z" fill="#D1D2DA"/>
<path d="M70.7933 42.8428C72.9444 42.8428 74.6881 41.0991 74.6881 38.948C74.6881 36.797 72.9444 35.0532 70.7933 35.0532C68.6423 35.0532 66.8985 36.797 66.8985 38.948C66.8985 41.0991 68.6423 42.8428 70.7933 42.8428Z" fill="#A7A9B7"/>
<path d="M24.2121 58.8741H1.20843C0.541034 58.8741 0 59.4152 0 60.0826V62.1256C0 62.793 0.541034 63.334 1.20843 63.334H24.2121C24.8795 63.334 25.4206 62.793 25.4206 62.1256V60.0826C25.4206 59.4152 24.8795 58.8741 24.2121 58.8741Z" fill="#FCCF07"/>
<path d="M0 62.056H25.6292V63.334H0V62.056Z" fill="#FAB306"/>
<path d="M3.13845 58.8741H6.75505V62.0561H3.13845V58.8741Z" fill="#FCEE8F"/>
<path d="M24.2121 54.4142H1.20843C0.541034 54.4142 0 54.9552 0 55.6226V57.6657C0 58.3331 0.541034 58.8741 1.20843 58.8741H24.2121C24.8795 58.8741 25.4206 58.3331 25.4206 57.6657V55.6226C25.4206 54.9552 24.8795 54.4142 24.2121 54.4142Z" fill="#FCCF07"/>
<path d="M0 57.5961H25.6292V58.8741H0V57.5961Z" fill="#FAB306"/>
<path d="M3.13845 54.4142H6.75505V57.5961H3.13845V54.4142Z" fill="#FCEE8F"/>
<path d="M24.2121 49.9543H1.20843C0.541034 49.9543 0 50.4954 0 51.1628V53.2058C0 53.8732 0.541034 54.4142 1.20843 54.4142H24.2121C24.8795 54.4142 25.4206 53.8732 25.4206 53.2058V51.1628C25.4206 50.4954 24.8795 49.9543 24.2121 49.9543Z" fill="#FCCF07"/>
<path d="M0 53.1362H25.6292V54.4142H0V53.1362Z" fill="#FAB306"/>
<path d="M3.13845 49.9543H6.75505V53.1363H3.13845V49.9543Z" fill="#FCEE8F"/>
<path d="M24.0035 63.334C31.0232 63.334 36.7138 57.6434 36.7138 50.6237C36.7138 43.604 31.0232 37.9135 24.0035 37.9135C16.9838 37.9135 11.2932 43.604 11.2932 50.6237C11.2932 57.6434 16.9838 63.334 24.0035 63.334Z" fill="#FAB306"/>
<path d="M24.0035 61.2301C29.8612 61.2301 34.6099 56.4815 34.6099 50.6237C34.6099 44.766 29.8612 40.0173 24.0035 40.0173C18.1457 40.0173 13.3971 44.766 13.3971 50.6237C13.3971 56.4815 18.1457 61.2301 24.0035 61.2301Z" fill="#FCEE8F"/>
<path d="M24.0035 58.2916C28.2383 58.2916 31.6714 54.8586 31.6714 50.6237C31.6714 46.3888 28.2383 42.9558 24.0035 42.9558C19.7686 42.9558 16.3356 46.3888 16.3356 50.6237C16.3356 54.8586 19.7686 58.2916 24.0035 58.2916Z" fill="#FCCF07"/>
</g>
<defs>
<clipPath id="clip0_13_35">
<rect width="80" height="63.3341" fill="white"/>
</clipPath>
</defs>
</svg>
