<svg fill="none" height="32" viewBox="0 0 32 32" width="32" xmlns="http://www.w3.org/2000/svg"><path d="m15.9998 2.66699c-7.34663 0-13.3333 5.98667-13.3333 13.33331 0 7.3467 5.98667 13.3334 13.3333 13.3334 7.3467 0 13.3334-5.9867 13.3334-13.3334 0-7.34664-5.9867-13.33331-13.3334-13.33331zm0 2.66667c4.8 0 8.8534 3.18667 10.2 7.54664-1.7066-.84-5.2666-2.2133-10.2-2.2133-4.9333 0-8.4933 1.3733-10.19996 2.2133 1.34666-4.35997 5.39996-7.54664 10.19996-7.54664zm0 14.00004c-1.4666 0-2.6666-1.2-2.6666-2.6667s1.2-2.6667 2.6666-2.6667c1.4667 0 2.6667 1.2 2.6667 2.6667s-1.2 2.6667-2.6667 2.6667zm-10.55996-1.88c4.34666.68 7.70666 4.36 7.86666 8.8533-4.12-1.0667-7.26666-4.5467-7.86666-8.8533zm13.23996 8.8533c.1734-4.5067 3.52-8.1733 7.8667-8.8533-.5867 4.3066-3.7333 7.7866-7.8667 8.8533z" fill="#2f313f"/></svg>